<?xml version="1.0" encoding="iso-8859-1"?>
<!-- Generator: Adobe Illustrator 19.0.0, SVG Export Plug-In . SVG Version: 6.00 Build 0)  -->
<svg version="1.1" id="Layer_1" xmlns="http://www.w3.org/2000/svg" xmlns:xlink="http://www.w3.org/1999/xlink" x="0px" y="0px"
	 viewBox="0 0 512 512" style="enable-background:new 0 0 512 512;" xml:space="preserve">
<g transform="translate(1 1)">
	<g>
		<path d="M479.685,60.644c-4.1-1.269-8.451-1.911-13.058-1.911H43.373c-4.608,0-8.959,0.642-13.059,1.911
			C12.065,66.141-1,82.917-1,103.107v303.787c0,12.278,4.835,23.291,12.725,31.276c0.277,0.412,0.58,0.802,0.928,1.15
			c2.215,1.993,4.605,3.751,7.12,5.27c6.256,3.889,13.578,6.264,21.484,6.624c0.705,0.034,1.41,0.052,2.115,0.052h423.253
			c0.705,0,1.41-0.018,2.114-0.052C492.481,450.133,511,430.931,511,406.893V103.107C511,82.917,497.934,66.141,479.685,60.644z
			 M493.933,103.107v303.787c0,5.84-1.73,11.183-4.715,15.567l-113.387-97.618c2.151-1.462,4.255-3.117,6.315-4.989
			c16.213-16.213,17.92-53.76,18.773-87.04c0-4.267,0-7.68,0-10.24c0-6.539-0.004-33.422-5.253-44.677l94.912-88.132
			C492.721,93.684,493.933,98.222,493.933,103.107z M320.707,342.04l-14.507-2.56c-3.413,0-6.827,0.853-8.533,4.267l-6.827,11.947
			l-23.725-59.314c7.128-1.64,13.685-4.781,19.24-8.984c1.913,4.914,4.423,9.531,7.523,13.852
			c4.293,6.252,9.587,11.694,15.339,16.169L320.707,342.04z M19.596,420.543c-2.249-3.99-3.529-8.636-3.529-13.65V103.107
			c0-4.885,1.212-9.422,3.354-13.342l96.653,89.749c-5.35,11.143-6.107,37.392-5.288,44.766c0,1.707,0,5.973,0,10.24
			c0,33.28,2.56,70.827,18.773,87.04c0.825,0.733,1.685,1.43,2.567,2.102L19.596,420.543z M140.653,308.76
			c-12.8-12.8-13.653-56.32-13.653-75.093c0-5.12,0-9.387,0-11.947c-0.853-8.533,0.853-31.573,3.413-36.693
			c0.108-0.186,0.226-0.357,0.337-0.54c0.782-0.591,1.505-1.302,2.223-2.02c5.592-7.989,13.428-12.237,23.507-12.747
			c0.688-0.031,1.383-0.053,2.093-0.053c19.627,0,41.813,29.013,52.053,43.52c0.798,1.33,1.593,2.564,2.365,3.703
			c-2.998,4.344-5.334,9.124-6.901,14.229L183.32,214.04c-3.413-2.56-9.387-1.707-11.947,1.707s-1.707,9.387,1.707,11.947
			l25.031,18.773L173.08,265.24c-3.413,2.56-4.267,8.533-1.707,11.947c1.707,2.56,4.267,3.413,6.827,3.413
			c1.707,0,3.413-0.853,5.12-1.707l22.474-16.856c0.64,2.617,1.402,5.146,2.273,7.469c-0.853,19.627-16.213,34.987-32.427,41.813
			c-3.428,1.582-7.182,2.837-11.01,3.54c-5.318,0.622-10.384,0.314-14.59-0.98c-0.775-0.194-1.502-0.289-2.199-0.317
			C145.244,312.485,142.812,310.919,140.653,308.76z M284.997,230.229c0.002,0.004,0.004,0.007,0.006,0.011
			c0.153,0.28,0.293,0.568,0.438,0.852c2.147,4.36,3.414,9.04,3.651,13.754c0.025,0.537,0.041,1.077,0.041,1.62
			c0,0.73-0.027,1.46-0.078,2.188c-0.003,0.039-0.006,0.078-0.009,0.117c-0.303,4.115-1.438,8.169-3.369,11.898
			c-1.046,0.734-1.934,1.696-2.518,2.864c-5.906,10.125-16.82,16.901-28.614,17.052c-0.508-0.006-1.015-0.019-1.52-0.048
			c-0.302-0.017-0.601-0.044-0.9-0.069c-0.311-0.025-0.621-0.055-0.93-0.088c-0.434-0.049-0.867-0.101-1.296-0.166
			c-0.069-0.01-0.137-0.022-0.206-0.033c-5.07-0.8-9.778-2.727-13.859-5.513c-3.965-2.784-7.357-6.507-9.85-11.136
			c-3.413-5.973-5.12-11.093-5.12-17.067c0-18.773,15.36-34.133,34.133-34.133C267.906,212.333,279.198,219.592,284.997,230.229z
			 M194.413,321.561c0.01-0.007,0.021-0.013,0.031-0.02c7.273-4.283,13.471-9.64,18.489-15.637
			c4.919-5.778,8.671-12.118,11.118-18.73c5.531,4.222,11.938,7.341,18.89,9.036l-27.194,60.337l-7.68-12.8
			c-1.707-2.56-5.12-4.267-7.68-4.267c-0.853,0-0.853,0-0.853,0l-14.507,2.56L194.413,321.561z M356.547,313.88
			c-1.138,0.379-2.325,0.661-3.542,0.873c-6.843,0.485-14.243-1.084-20.351-3.433c-15.159-6.737-31.139-21.789-32.375-41.049
			c1.432-2.703,2.635-5.544,3.568-8.503l22.833,17.125c1.707,0.853,3.413,1.707,5.12,1.707c2.56,0,5.12-0.853,6.827-3.413
			c2.56-3.413,1.707-9.387-1.707-11.947l-25.031-18.773l25.031-18.773c3.413-2.56,4.267-8.533,1.707-11.947
			c-2.56-3.413-8.533-4.267-11.947-1.707l-22.833,17.125c-1.612-5.108-4.016-9.87-7.052-14.157c0.838-1.124,1.707-2.368,2.578-3.821
			c10.187-14.431,32.196-43.208,51.747-43.506c0.211,0.003,0.419,0.011,0.628,0.016c7.359,0.602,13.58,2.356,18.665,6.011
			c3.053,2.395,5.557,5.5,7.467,9.319c2.56,5.12,4.267,28.16,3.413,36.693c0,2.56,0,6.827,0,11.947
			c0,18.773-0.853,62.293-13.653,75.093c-2.308,2.308-5.118,3.862-8.206,4.823C358.418,313.506,357.43,313.585,356.547,313.88z
			 M466.627,75.8c0.502,0,0.99,0.014,1.469,0.038c0.239,0.012,0.474,0.034,0.711,0.052c0.257,0.019,0.517,0.035,0.769,0.062
			c0.123,0.013,0.243,0.031,0.365,0.045c2.81,0.339,5.297,1.122,7.779,2.364l-92.076,86.163
			c-8.641-8.11-20.151-12.776-33.364-12.776h-0.853c-15.963,0-30.278,10.148-42.328,22.356
			c-9.574,9.535-17.755,20.463-24.232,28.844c0,0.75-0.658,0.842-0.818,1.433c-7.261-5.036-15.869-8.24-25.151-8.948
			c-0.056-0.005-0.111-0.008-0.167-0.013c-0.518-0.038-1.036-0.074-1.558-0.096c-0.724-0.034-1.448-0.055-2.172-0.055
			s-1.448,0.022-2.172,0.055c-0.522,0.022-1.04,0.059-1.558,0.096c-0.056,0.004-0.111,0.008-0.167,0.013
			c-9.148,0.698-17.646,3.815-24.84,8.726c-0.092-0.121-0.183-0.235-0.276-0.358c-6.438-8.331-14.727-19.347-24.415-28.955
			c-12.321-12.427-26.967-22.731-42.999-22.245c-16.213,0.853-26.453,5.973-33.28,12.8L32.28,78.36
			c2.482-1.241,4.969-2.025,7.779-2.364c0.122-0.014,0.242-0.032,0.365-0.045c0.252-0.027,0.512-0.042,0.77-0.062
			c0.237-0.018,0.472-0.04,0.711-0.052c0.479-0.024,0.967-0.038,1.469-0.038H466.627z M43.373,434.2
			c-2.768,0-5.536-0.563-8.305-1.23c-0.602-0.185-1.192-0.395-1.774-0.618L147.98,331.258c3.602,0.902,7.425,1.396,11.446,1.396
			c4.026,0,8.055-0.482,12.204-1.419l-8.791,19.339c-1.707,2.56-0.853,5.973,0.853,8.533c2.56,2.56,5.12,4.267,8.533,3.413
			l24.747-4.267l12.8,21.333c1.707,2.56,4.267,4.267,7.68,4.267s5.973-2.56,7.68-5.12l30.72-67.413l26.453,67.413
			c0.853,2.56,3.413,5.12,7.68,5.12c2.56,0,5.973-0.853,7.68-4.267l12.8-21.333l21.333,3.413c3.413,0,6.827-0.853,8.533-3.413
			c1.707-2.56,2.56-5.973,0.853-8.533l-9.51-20.26c6.274,2.118,12.847,3.193,18.896,3.193c3.499,0,6.848-0.377,10.075-1.109
			l116.055,100.807c-0.582,0.223-1.171,0.433-1.772,0.618c-2.768,0.667-5.536,1.23-8.305,1.23H43.373z"/>
	</g>
</g>
<g>
</g>
<g>
</g>
<g>
</g>
<g>
</g>
<g>
</g>
<g>
</g>
<g>
</g>
<g>
</g>
<g>
</g>
<g>
</g>
<g>
</g>
<g>
</g>
<g>
</g>
<g>
</g>
<g>
</g>
</svg>
